<svg xmlns="http://www.w3.org/2000/svg" xmlns:xlink="http://www.w3.org/1999/xlink" id="body_1" viewBox="-2.83 646.75 100.2 23.07">

<defs>
    <clipPath id="1">

    <path id="" clip-rule="evenodd" transform="matrix(1 0 0 1 0 0)" d="M500.25 -0.25L500.25 500L500.25 500L0 500L0 500L0 -0.25L0 -0.25L500.25 -0.25z"/>    </clipPath>
    <clipPath id="2">

    <path id="" clip-rule="evenodd" transform="matrix(1 0 0 1 0 0)" d="M500.25 500L500.25 500L500.25 500L0.2625122 500L0.2625122 500L0.2625122 500L0.2625122 500L0.2625122 0.012512207L0.2625122 0.012512207L0.2625122 0.012512207L0.2625122 0.012512207L500.25 0.012512207L500.25 0.012512207L500.25 0.012512207L500.25 0.012512207L500.25 500z"/>    </clipPath>
</defs>

<g transform="matrix(1.3333 0 0 1.3333 0 0)">
	<g clip-path="url(#1)">
		<g clip-path="url(#2)">
    <path id="" transform="matrix(1 0 0 -1 0 500)" d="M63.443146 10.414154L63.443146 10.414154L63.443146 10.414154L63.443146 10.414154L63.443146 10.414154L63.443146 10.414154L63.443146 10.414154L63.167145 2.1223755L63.167145 2.1223755L63.167145 2.1223755L63.167145 2.1223755L63.167145 2.1223755L63.167145 2.1223755L63.167145 2.1223755C 63.167145 2.1223755 10.090973 4.858307 6.9328003 5.0893555L6.9328003 5.0893555L6.9328003 5.0893555L6.9328003 5.0893555L6.9328003 5.0893555L6.9328003 5.0893555L6.9328003 5.0893555C 3.683899 5.32782 0.2624817 5.87381 0.2624817 6.3957825L0.2624817 6.3957825L0.2624817 6.3957825L0.2624817 6.3957825L0.2624817 6.3957825L0.2624817 6.3957825L0.2624817 6.3957825C 0.2624817 6.9170227 3.4634094 7.709778 6.9328003 7.9355164L6.9328003 7.9355164L6.9328003 7.9355164L6.9328003 7.9355164L6.9328003 7.9355164L6.9328003 7.9355164L6.9328003 7.9355164C 10.402954 8.162018 63.443146 10.414154 63.443146 10.414154z" stroke="#FFFFFF" stroke-width="0.99997497" fill="#464646" fill-rule="nonzero"/>
    <path id="" transform="matrix(1 0 0 -1 0 500)" d="M64.36716 12.540375C 67.82828 12.540375 70.6362 9.733185 70.6362 6.270569L70.6362 6.270569L70.6362 6.270569L70.6362 6.270569L70.6362 6.270569L70.6362 6.270569L70.6362 6.270569C 70.6362 2.8079224 67.82828 -3.0517578E-05 64.36716 -3.0517578E-05L64.36716 -3.0517578E-05L64.36716 -3.0517578E-05L64.36716 -3.0517578E-05L64.36716 -3.0517578E-05L64.36716 -3.0517578E-05L64.36716 -3.0517578E-05C 60.90219 -3.0517578E-05 58.095 2.807129 58.095 6.2697754L58.095 6.2697754L58.095 6.2697754L58.095 6.2697754L58.095 6.2697754L58.095 6.2697754L58.095 6.2697754C 58.095 9.732452 60.90219 12.540375 64.36716 12.540375z" stroke="#FFFFFF" stroke-width="0.99997497" fill="#464646" fill-rule="nonzero"/>
    <path id="" transform="matrix(1 0 0 -1 0 500)" d="M64.364105 8.337494C 63.806824 8.337494 63.331116 8.140472 62.937042 7.746399L62.937042 7.746399L62.937042 7.746399L62.937042 7.746399L62.937042 7.746399L62.937042 7.746399L62.937042 7.746399C 62.54297 7.3523254 62.345917 6.8766174 62.345917 6.3193054L62.345917 6.3193054L62.345917 6.3193054L62.345917 6.3193054L62.345917 6.3193054L62.345917 6.3193054L62.345917 6.3193054C 62.345917 5.7619934 62.54297 5.2862854 62.937042 4.8922424L62.937042 4.8922424L62.937042 4.8922424L62.937042 4.8922424L62.937042 4.8922424L62.937042 4.8922424L62.937042 4.8922424C 63.331116 4.4981384 63.806824 4.3010864 64.364105 4.3010864L64.364105 4.3010864L64.364105 4.3010864L64.364105 4.3010864L64.364105 4.3010864L64.364105 4.3010864L64.364105 4.3010864C 64.92142 4.3010864 65.397156 4.4981384 65.7912 4.8922424L65.7912 4.8922424L65.7912 4.8922424L65.7912 4.8922424L65.7912 4.8922424L65.7912 4.8922424L65.7912 4.8922424C 66.18527 5.2862854 66.382324 5.7619934 66.382324 6.3193054L66.382324 6.3193054L66.382324 6.3193054L66.382324 6.3193054L66.382324 6.3193054L66.382324 6.3193054L66.382324 6.3193054C 66.382324 6.8766174 66.18527 7.3523254 65.7912 7.746399L65.7912 7.746399L65.7912 7.746399L65.7912 7.746399L65.7912 7.746399L65.7912 7.746399L65.7912 7.746399C 65.397156 8.140472 64.92142 8.337494 64.364105 8.337494" stroke="#FFFFFF" stroke-width="0.99997497" fill="#EEEEEE" fill-rule="evenodd"/>
		</g>
	</g>
</g>
</svg>