<svg xmlns="http://www.w3.org/2000/svg" xmlns:xlink="http://www.w3.org/1999/xlink" id="body_1" viewBox="1.22 256.04 666.45 153.42">

<defs>
    <clipPath id="1">

    <path id="" clip-rule="evenodd" transform="matrix(1 0 0 1 0 0)" d="M500 0L500 500L500 500L0 500L0 500L0 0L0 0L500 0z"/>    </clipPath>
    <clipPath id="2">

    <path id="" clip-rule="evenodd" transform="matrix(1 0 0 1 0 0)" d="M-2841.5671 3536.1033L-2841.5671 3536.1033L-2841.5671 3536.1033L-2841.5671 207.84302L-2841.5671 207.84302L-2841.5671 207.84302L-2841.5671 207.84302L486.69327 207.84302L486.69327 207.84302L486.69327 207.84302L486.69327 207.84302L486.69327 3536.1033L486.69327 3536.1033L486.69327 3536.1033L486.69327 3536.1033L-2841.5671 3536.1033z"/>    </clipPath>
    <clipPath id="3">

    <path id="" clip-rule="evenodd" transform="matrix(1 0 0 1 0 0)" d="M-2841.5676 207.8435L-2841.5676 207.8435L-2841.5676 207.8435L-2841.5676 207.8435L-2841.5676 207.8435L-2841.5676 207.8435L-2841.5676 207.8435L484.94672 207.8435L484.94672 207.8435L484.94672 207.8435L484.94672 207.8435L484.94672 207.8435L484.94672 207.8435L484.94672 207.8435L484.94672 207.8435L484.94672 3534.3567L484.94672 3534.3567L484.94672 3534.3567L484.94672 3534.3567L484.94672 3534.3567L484.94672 3534.3567L484.94672 3534.3567L484.94672 3534.3567L-2841.5676 3534.3567L-2841.5676 3534.3567L-2841.5676 3534.3567L-2841.5676 3534.3567L-2841.5676 3534.3567L-2841.5676 3534.3567L-2841.5676 3534.3567L-2841.5676 3534.3567L-2841.5676 207.8435z"/>    </clipPath>
</defs>

<g transform="matrix(1.3333 0 0 1.3333 0 0)">
	<g clip-path="url(#1)">
		<g clip-path="url(#2)">
			<g clip-path="url(#3)">
    <path id="" transform="matrix(1 0 0 -1 0 500)" d="M64.5936 222.86887L64.5936 222.86887L64.5936 222.86887L64.5936 222.86887L64.5936 222.86887L64.5936 222.86887L64.5936 222.86887L64.5936 222.86887L64.5936 222.86887L64.5936 222.86887L64.5936 222.86887L64.5936 222.86887L64.5936 222.86887L64.5936 222.86887L64.5936 222.86887L66.4299 278.03568L66.4299 278.03568L66.4299 278.03568L66.4299 278.03568L66.4299 278.03568L66.4299 278.03568L66.4299 278.03568L66.4299 278.03568L66.4299 278.03568L66.4299 278.03568L66.4299 278.03568L66.4299 278.03568L66.4299 278.03568L66.4299 278.03568L66.4299 278.03568C 66.4299 278.03568 419.55603 259.833 440.56796 258.29578L440.56796 258.29578L440.56796 258.29578L440.56796 258.29578L440.56796 258.29578L440.56796 258.29578L440.56796 258.29578L440.56796 258.29578L440.56796 258.29578L440.56796 258.29578L440.56796 258.29578L440.56796 258.29578L440.56796 258.29578L440.56796 258.29578L440.56796 258.29578C 462.18353 256.70923 484.9469 253.07666 484.9469 249.60388L484.9469 249.60388L484.9469 249.60388L484.9469 249.60388L484.9469 249.60388L484.9469 249.60388L484.9469 249.60388L484.9469 249.60388L484.9469 249.60388L484.9469 249.60388L484.9469 249.60388L484.9469 249.60388L484.9469 249.60388L484.9469 249.60388L484.9469 249.60388C 484.9469 246.13596 463.6505 240.8616 440.56796 239.35973L440.56796 239.35973L440.56796 239.35973L440.56796 239.35973L440.56796 239.35973L440.56796 239.35973L440.56796 239.35973L440.56796 239.35973L440.56796 239.35973L440.56796 239.35973L440.56796 239.35973L440.56796 239.35973L440.56796 239.35973L440.56796 239.35973L440.56796 239.35973C 417.48035 237.85277 64.5936 222.86887 64.5936 222.86887z" stroke="#FFFFFF" stroke-width="6.6530285" fill="#464646" fill-rule="nonzero"/>
    <path id="" transform="matrix(1 0 0 -1 0 500)" d="M58.445984 208.72272C 35.418457 208.72272 16.736816 227.39949 16.736816 250.43695L16.736816 250.43695L16.736816 250.43695L16.736816 250.43695L16.736816 250.43695L16.736816 250.43695L16.736816 250.43695L16.736816 250.43695L16.736816 250.43695L16.736816 250.43695L16.736816 250.43695L16.736816 250.43695L16.736816 250.43695L16.736816 250.43695L16.736816 250.43695C 16.736816 273.4746 35.418457 292.15646 58.445984 292.15646L58.445984 292.15646L58.445984 292.15646L58.445984 292.15646L58.445984 292.15646L58.445984 292.15646L58.445984 292.15646L58.445984 292.15646L58.445984 292.15646L58.445984 292.15646L58.445984 292.15646L58.445984 292.15646L58.445984 292.15646L58.445984 292.15646L58.445984 292.15646C 81.499084 292.15646 100.17584 273.4799 100.17584 250.44223L100.17584 250.44223L100.17584 250.44223L100.17584 250.44223L100.17584 250.44223L100.17584 250.44223L100.17584 250.44223L100.17584 250.44223L100.17584 250.44223L100.17584 250.44223L100.17584 250.44223L100.17584 250.44223L100.17584 250.44223L100.17584 250.44223L100.17584 250.44223C 100.17584 227.40436 81.499084 208.72272 58.445984 208.72272z" stroke="#FFFFFF" stroke-width="6.6530285" fill="#464646" fill-rule="nonzero"/>
    <path id="" transform="matrix(1 0 0 -1 0 500)" d="M58.466278 236.6853C 62.17398 236.6853 65.33896 237.99612 67.960815 240.61797L67.960815 240.61797L67.960815 240.61797L67.960815 240.61797L67.960815 240.61797L67.960815 240.61797L67.960815 240.61797L67.960815 240.61797L67.960815 240.61797L67.960815 240.61797L67.960815 240.61797L67.960815 240.61797L67.960815 240.61797L67.960815 240.61797L67.960815 240.61797C 70.58267 243.2398 71.89368 246.40479 71.89368 250.11269L71.89368 250.11269L71.89368 250.11269L71.89368 250.11269L71.89368 250.11269L71.89368 250.11269L71.89368 250.11269L71.89368 250.11269L71.89368 250.11269L71.89368 250.11269L71.89368 250.11269L71.89368 250.11269L71.89368 250.11269L71.89368 250.11269L71.89368 250.11269C 71.89368 253.82059 70.58267 256.98557 67.960815 259.6072L67.960815 259.6072L67.960815 259.6072L67.960815 259.6072L67.960815 259.6072L67.960815 259.6072L67.960815 259.6072L67.960815 259.6072L67.960815 259.6072L67.960815 259.6072L67.960815 259.6072L67.960815 259.6072L67.960815 259.6072L67.960815 259.6072L67.960815 259.6072C 65.33896 262.22928 62.17398 263.54028 58.466278 263.54028L58.466278 263.54028L58.466278 263.54028L58.466278 263.54028L58.466278 263.54028L58.466278 263.54028L58.466278 263.54028L58.466278 263.54028L58.466278 263.54028L58.466278 263.54028L58.466278 263.54028L58.466278 263.54028L58.466278 263.54028L58.466278 263.54028L58.466278 263.54028C 54.758392 263.54028 51.5932 262.22928 48.971558 259.6072L48.971558 259.6072L48.971558 259.6072L48.971558 259.6072L48.971558 259.6072L48.971558 259.6072L48.971558 259.6072L48.971558 259.6072L48.971558 259.6072L48.971558 259.6072L48.971558 259.6072L48.971558 259.6072L48.971558 259.6072L48.971558 259.6072L48.971558 259.6072C 46.3497 256.98557 45.038666 253.82059 45.038666 250.11269L45.038666 250.11269L45.038666 250.11269L45.038666 250.11269L45.038666 250.11269L45.038666 250.11269L45.038666 250.11269L45.038666 250.11269L45.038666 250.11269L45.038666 250.11269L45.038666 250.11269L45.038666 250.11269L45.038666 250.11269L45.038666 250.11269L45.038666 250.11269C 45.038666 246.40479 46.3497 243.2398 48.971558 240.61797L48.971558 240.61797L48.971558 240.61797L48.971558 240.61797L48.971558 240.61797L48.971558 240.61797L48.971558 240.61797L48.971558 240.61797L48.971558 240.61797L48.971558 240.61797L48.971558 240.61797L48.971558 240.61797L48.971558 240.61797L48.971558 240.61797L48.971558 240.61797C 51.5932 237.99612 54.758392 236.6853 58.466278 236.6853" stroke="#FFFFFF" stroke-width="6.6530285" fill="#EEEEEE" fill-rule="evenodd"/>
			</g>
		</g>
	</g>
</g>
</svg>